# xmcd CD database file
#
# Track frame offsets:
#	150
#	25097
#	60211
#	92815
#	126831
#	165915
#	194797
#	238189
#	268149
#	283052
#
# Disc length: 4204 seconds
#
# Revision: 0
# Processed by: cddbd v1.5PL3 Copyright (c) Steve Scherf et al.
# Submitted via: CDex 1.51
#
DISCID=8b106a0a
DTITLE=Ladislav Fidri - Morning Star
DYEAR=1900
DGENRE=Jazz
TTITLE0=Morning Star
TTITLE1=Round About Midnight
TTITLE2=In your own sweet way
TTITLE3=like someone in love
TTITLE4=The night has a thousand eyes
TTITLE5=when You Wish upon a star
TTITLE6=my funny valentine
TTITLE7=karona
TTITLE8=cooker
TTITLE9=song for dizzy
EXTD=
EXTT0=
EXTT1=
EXTT2=
EXTT3=
EXTT4=
EXTT5=
EXTT6=
EXTT7=
EXTT8=
EXTT9=
PLAYORDER=
